<svg width="40" height="40" viewBox="0 0 40 40" fill="none" xmlns="http://www.w3.org/2000/svg">
<path d="M19.9092 1.7836C9.7684 1.7836 1.5184 10.0336 1.5184 20.1744C1.5184 30.3152 9.7684 38.5656 19.9092 38.5656C30.0504 38.5656 38.3008 30.3156 38.3008 20.1744C38.3008 10.0332 30.0504 1.7836 19.9092 1.7836ZM19.9092 37.7656C10.2096 37.7656 2.3184 29.8744 2.3184 20.1744C2.3184 10.4748 10.2096 2.5836 19.9092 2.5836C29.6092 2.5836 37.5008 10.4748 37.5008 20.1744C37.5008 29.8744 29.6092 37.7656 19.9092 37.7656Z" fill="black"/>
<path d="M19.9092 8.3808C13.406 8.3808 8.1156 13.672 8.1156 20.1752C8.1156 25.1544 11.2664 29.6212 15.958 31.2904L16.0852 31.3336C16.192 31.368 16.3032 31.3856 16.4152 31.3856C17.0056 31.3856 17.486 30.9056 17.486 30.3156C17.486 30.3056 17.4856 30.2952 17.4852 30.2852C17.4856 30.2776 17.486 30.27 17.486 30.262V28.2812C17.486 28.1612 17.432 28.0472 17.3388 27.9712C17.246 27.8956 17.1252 27.8648 17.0056 27.8892C16.6512 27.962 16.1252 28.0484 15.6328 28.0484C15.196 28.0484 14.96 27.9788 14.8388 27.9204C14.1736 27.6004 13.8468 27.2156 13.4936 26.3372C13.2336 25.6876 12.8016 25.2704 12.4404 24.9968C12.6156 25.024 12.8272 25.0968 12.984 25.2768C13.1028 25.4128 13.2288 25.5884 13.362 25.774C13.8772 26.4912 14.5944 27.488 15.8456 27.3616C16.4048 27.3032 16.874 27.2136 17.2404 27.0948C17.3892 27.0464 17.4964 26.916 17.5144 26.7608C17.5748 26.2444 17.7304 25.852 17.9768 25.594C18.0792 25.4868 18.1144 25.3316 18.0672 25.1908C18.0204 25.05 17.8996 24.9468 17.7532 24.9228C14.5964 24.4012 12.996 22.7244 12.996 19.9392C12.996 18.6304 13.3548 17.5548 14.0624 16.742C14.1416 16.6508 14.1756 16.5288 14.1544 16.4096C13.9468 15.2324 13.9756 14.2752 14.2224 13.9152C14.4172 13.8776 15.1832 13.8576 16.824 15.0132C16.9168 15.0788 17.0336 15.102 17.1444 15.076C17.948 14.8912 18.8604 14.794 19.856 14.788C19.874 14.788 19.8912 14.7868 19.9084 14.7844L19.9088 14.7876L19.9348 14.7872C19.9436 14.7876 19.9528 14.788 19.9616 14.788C20.9572 14.7944 21.87 14.8912 22.6732 15.076C22.7832 15.1016 22.8996 15.0788 22.9936 15.0132C24.6408 13.8532 25.42 13.8872 25.5948 13.914C25.8424 14.2724 25.8712 15.2308 25.6636 16.41C25.6424 16.5288 25.6764 16.6512 25.7556 16.7424C26.4636 17.554 26.822 18.6296 26.822 19.9392C26.822 22.7244 25.2212 24.4012 22.0644 24.9228C21.918 24.9472 21.7972 25.0504 21.7504 25.1908C21.7032 25.3316 21.7384 25.4868 21.8408 25.594C22.3324 26.1072 22.3324 27.0236 22.3324 27.3248V30.3148C22.3324 30.9048 22.8124 31.3848 23.4028 31.3848C23.4888 31.3848 23.5748 31.3744 23.656 31.3544C23.6728 31.3504 23.7372 31.3324 23.7632 31.324C28.5128 29.6836 31.704 25.2028 31.704 20.1752C31.704 13.6716 26.4128 8.3808 19.9092 8.3808ZM23.5144 30.5648L23.4668 30.578C23.3076 30.6176 23.1332 30.4864 23.1332 30.3156V27.3256C23.1332 27.0308 23.1332 26.27 22.802 25.5956C25.96 24.8884 27.6232 22.9432 27.6232 19.9396C27.6232 18.5072 27.24 17.306 26.4832 16.3648C26.6592 15.2668 26.7196 13.9104 26.1188 13.2952C26.0956 13.272 26.0704 13.2516 26.0428 13.2344C25.8868 13.1384 25.0196 12.6568 22.68 14.2588C21.8632 14.0856 20.952 13.9948 19.9676 13.9888V13.992C19.9484 13.9896 19.9288 13.988 19.9096 13.988L19.8544 13.9872C19.8416 13.9872 19.8288 13.9876 19.816 13.9888C18.8456 13.9972 17.9464 14.0876 17.1396 14.2584C14.7992 12.6568 13.9332 13.138 13.7772 13.234C13.7496 13.2512 13.724 13.2716 13.7012 13.2952C13.1004 13.9108 13.1604 15.2672 13.3368 16.3644C12.58 17.306 12.1968 18.508 12.1968 19.9396C12.1968 22.9428 13.86 24.8884 17.0176 25.5952C16.9016 25.8316 16.8156 26.1008 16.7604 26.4008C16.5324 26.458 16.208 26.52 15.7636 26.5664C14.9724 26.6476 14.4872 25.968 14.0124 25.3076C13.868 25.106 13.7308 24.9156 13.5872 24.7508C13.2668 24.384 12.7896 24.1816 12.2432 24.1816C11.9 24.1816 11.462 24.268 11.2632 24.5108C11.1708 24.6236 11.1332 24.7664 11.1604 24.902C11.2056 25.1308 11.3908 25.252 11.6252 25.4048C11.9668 25.628 12.4832 25.9648 12.752 26.6356C13.1764 27.6916 13.648 28.2352 14.4928 28.6416C14.7824 28.7812 15.1552 28.8488 15.634 28.8488C15.9944 28.8488 16.3648 28.8092 16.6872 28.7592V30.2424C16.6852 30.2668 16.6852 30.2916 16.6872 30.3156C16.6872 30.4928 16.5024 30.6264 16.332 30.5724L16.2244 30.5356C11.8532 28.9804 8.916 24.8168 8.916 20.1752C8.916 14.1128 13.8476 9.1808 19.9096 9.1808C25.972 9.1808 30.904 14.1128 30.904 20.1752C30.904 24.862 27.9296 29.0388 23.5144 30.5648Z" fill="black"/>
</svg>
