<svg width="40" height="40" viewBox="0 0 40 40" fill="none" xmlns="http://www.w3.org/2000/svg">
<mask id="path-1-inside-1_10_32" fill="white">
<path d="M19.896 38.3464C30.0368 38.3464 38.2868 30.0964 38.2868 19.9552C38.2868 9.81401 30.0368 1.56441 19.896 1.56441C9.75479 1.56441 1.50439 9.81441 1.50439 19.9556C1.50439 30.0968 9.75479 38.3464 19.896 38.3464ZM19.896 2.36441C29.5956 2.36441 37.4868 10.2556 37.4868 19.9556C37.4868 29.6556 29.5956 37.5464 19.896 37.5464C10.196 37.5464 2.30439 29.6552 2.30439 19.9552C2.30439 10.2552 10.196 2.36441 19.896 2.36441Z"/>
</mask>
<path d="M19.896 38.3464C30.0368 38.3464 38.2868 30.0964 38.2868 19.9552C38.2868 9.81401 30.0368 1.56441 19.896 1.56441C9.75479 1.56441 1.50439 9.81441 1.50439 19.9556C1.50439 30.0968 9.75479 38.3464 19.896 38.3464ZM19.896 2.36441C29.5956 2.36441 37.4868 10.2556 37.4868 19.9556C37.4868 29.6556 29.5956 37.5464 19.896 37.5464C10.196 37.5464 2.30439 29.6552 2.30439 19.9552C2.30439 10.2552 10.196 2.36441 19.896 2.36441Z" fill="black"/>
<path d="M19.896 39.3464C30.5891 39.3464 39.2868 30.6487 39.2868 19.9552H37.2868C37.2868 29.5441 29.4845 37.3464 19.896 37.3464V39.3464ZM39.2868 19.9552C39.2868 9.26171 30.5891 0.564407 19.896 0.564407V2.56441C29.4845 2.56441 37.2868 10.3663 37.2868 19.9552H39.2868ZM19.896 0.564407C9.20254 0.564407 0.504395 9.26209 0.504395 19.9556H2.50439C2.50439 10.3667 10.307 2.56441 19.896 2.56441V0.564407ZM0.504395 19.9556C0.504395 30.6491 9.20257 39.3464 19.896 39.3464V37.3464C10.307 37.3464 2.50439 29.5445 2.50439 19.9556H0.504395ZM19.896 3.36441C29.0433 3.36441 36.4868 10.8079 36.4868 19.9556H38.4868C38.4868 9.70334 30.1479 1.36441 19.896 1.36441V3.36441ZM36.4868 19.9556C36.4868 29.1033 29.0433 36.5464 19.896 36.5464V38.5464C30.1479 38.5464 38.4868 30.2079 38.4868 19.9556H36.4868ZM19.896 36.5464C10.7482 36.5464 3.30439 29.1029 3.30439 19.9552H1.30439C1.30439 30.2075 9.64374 38.5464 19.896 38.5464V36.5464ZM3.30439 19.9552C3.30439 10.8076 10.7482 3.36441 19.896 3.36441V1.36441C9.64377 1.36441 1.30439 9.70286 1.30439 19.9552H3.30439Z" fill="black" mask="url(#path-1-inside-1_10_32)"/>
<mask id="path-3-inside-2_10_32" fill="white">
<path d="M15.0312 15.9088H11.3852C11.1644 15.9088 10.9852 16.088 10.9852 16.3088V28.0872C10.9852 28.308 11.1644 28.4872 11.3852 28.4872H15.0312C15.252 28.4872 15.4312 28.308 15.4312 28.0872V16.3088C15.4312 16.088 15.252 15.9088 15.0312 15.9088ZM14.6312 27.6872H11.7852V16.7088H14.6312V27.6872Z"/>
</mask>
<path d="M15.0312 15.9088H11.3852C11.1644 15.9088 10.9852 16.088 10.9852 16.3088V28.0872C10.9852 28.308 11.1644 28.4872 11.3852 28.4872H15.0312C15.252 28.4872 15.4312 28.308 15.4312 28.0872V16.3088C15.4312 16.088 15.252 15.9088 15.0312 15.9088ZM14.6312 27.6872H11.7852V16.7088H14.6312V27.6872Z" fill="black"/>
<path d="M14.6312 27.6872V28.6872H15.6312V27.6872H14.6312ZM11.7852 27.6872H10.7852V28.6872H11.7852V27.6872ZM11.7852 16.7088V15.7088H10.7852V16.7088H11.7852ZM14.6312 16.7088H15.6312V15.7088H14.6312V16.7088ZM15.0312 14.9088H11.3852V16.9088H15.0312V14.9088ZM11.3852 14.9088C10.6121 14.9088 9.9852 15.5357 9.9852 16.3088H11.9852C11.9852 16.6403 11.7167 16.9088 11.3852 16.9088V14.9088ZM9.9852 16.3088V28.0872H11.9852V16.3088H9.9852ZM9.9852 28.0872C9.9852 28.8603 10.6121 29.4872 11.3852 29.4872V27.4872C11.7167 27.4872 11.9852 27.7557 11.9852 28.0872H9.9852ZM11.3852 29.4872H15.0312V27.4872H11.3852V29.4872ZM15.0312 29.4872C15.8043 29.4872 16.4312 28.8603 16.4312 28.0872H14.4312C14.4312 27.7557 14.6997 27.4872 15.0312 27.4872V29.4872ZM16.4312 28.0872V16.3088H14.4312V28.0872H16.4312ZM16.4312 16.3088C16.4312 15.5357 15.8043 14.9088 15.0312 14.9088V16.9088C14.6997 16.9088 14.4312 16.6403 14.4312 16.3088H16.4312ZM14.6312 26.6872H11.7852V28.6872H14.6312V26.6872ZM12.7852 27.6872V16.7088H10.7852V27.6872H12.7852ZM11.7852 17.7088H14.6312V15.7088H11.7852V17.7088ZM13.6312 16.7088V27.6872H15.6312V16.7088H13.6312Z" fill="black" mask="url(#path-3-inside-2_10_32)"/>
<mask id="path-5-inside-3_10_32" fill="white">
<path d="M17.3624 28.4872H20.8592C21.08 28.4872 21.2592 28.308 21.2592 28.0872V21.9044C21.2592 20.8816 21.5752 19.6624 23.0804 19.6624C23.4724 19.6624 24.6656 19.6624 24.6656 21.9044V28.0876C24.6656 28.3084 24.8448 28.4876 25.0656 28.4876H28.6936C28.9144 28.4876 29.0936 28.3084 29.0936 28.0876V20.6296C29.0936 17.4484 27.342 15.5492 24.4084 15.5492C22.9024 15.5492 21.8788 16.19 21.2592 16.7736V16.3092C21.2592 16.0884 21.08 15.9092 20.8592 15.9092H17.3624C17.1416 15.9092 16.9624 16.0884 16.9624 16.3092V28.0876C16.9624 28.3084 17.1416 28.4872 17.3624 28.4872ZM17.7624 16.7088H20.4592V17.8948C20.4592 18.078 20.5836 18.2376 20.7612 18.2824C20.9396 18.3284 21.1244 18.246 21.2112 18.0848C21.2204 18.0676 22.1752 16.3488 24.4084 16.3488C26.8776 16.3488 28.2936 17.9088 28.2936 20.6292V27.6868H25.4656V21.9044C25.4656 19.2576 23.9712 18.8624 23.0804 18.8624C21.4388 18.8624 20.4592 19.9996 20.4592 21.9044V27.6876H17.7624V16.7088Z"/>
</mask>
<path d="M17.3624 28.4872H20.8592C21.08 28.4872 21.2592 28.308 21.2592 28.0872V21.9044C21.2592 20.8816 21.5752 19.6624 23.0804 19.6624C23.4724 19.6624 24.6656 19.6624 24.6656 21.9044V28.0876C24.6656 28.3084 24.8448 28.4876 25.0656 28.4876H28.6936C28.9144 28.4876 29.0936 28.3084 29.0936 28.0876V20.6296C29.0936 17.4484 27.342 15.5492 24.4084 15.5492C22.9024 15.5492 21.8788 16.19 21.2592 16.7736V16.3092C21.2592 16.0884 21.08 15.9092 20.8592 15.9092H17.3624C17.1416 15.9092 16.9624 16.0884 16.9624 16.3092V28.0876C16.9624 28.3084 17.1416 28.4872 17.3624 28.4872ZM17.7624 16.7088H20.4592V17.8948C20.4592 18.078 20.5836 18.2376 20.7612 18.2824C20.9396 18.3284 21.1244 18.246 21.2112 18.0848C21.2204 18.0676 22.1752 16.3488 24.4084 16.3488C26.8776 16.3488 28.2936 17.9088 28.2936 20.6292V27.6868H25.4656V21.9044C25.4656 19.2576 23.9712 18.8624 23.0804 18.8624C21.4388 18.8624 20.4592 19.9996 20.4592 21.9044V27.6876H17.7624V16.7088Z" fill="black"/>
<path d="M21.2592 16.7736H20.2592V19.0893L21.9448 17.5015L21.2592 16.7736ZM16.9624 28.0876H15.9624H16.9624ZM17.7624 16.7088V15.7088H16.7624V16.7088H17.7624ZM20.4592 16.7088H21.4592V15.7088H20.4592V16.7088ZM20.7612 18.2824L21.0109 17.3141L21.0058 17.3128L20.7612 18.2824ZM21.2112 18.0848L22.0917 18.5589L22.093 18.5565L21.2112 18.0848ZM28.2936 27.6868V28.6868H29.2936V27.6868H28.2936ZM25.4656 27.6868H24.4656V28.6868H25.4656V27.6868ZM20.4592 27.6876V28.6876H21.4592V27.6876H20.4592ZM17.7624 27.6876H16.7624V28.6876H17.7624V27.6876ZM17.3624 29.4872H20.8592V27.4872H17.3624V29.4872ZM20.8592 29.4872C21.6323 29.4872 22.2592 28.8603 22.2592 28.0872H20.2592C20.2592 27.7557 20.5277 27.4872 20.8592 27.4872V29.4872ZM22.2592 28.0872V21.9044H20.2592V28.0872H22.2592ZM22.2592 21.9044C22.2592 21.4635 22.3331 21.1246 22.4562 20.9252C22.5087 20.8402 22.5662 20.7865 22.6359 20.7488C22.7079 20.71 22.8412 20.6624 23.0804 20.6624V18.6624C22.0023 18.6624 21.2147 19.1292 20.7545 19.8745C20.3433 20.5404 20.2592 21.3225 20.2592 21.9044H22.2592ZM23.0804 20.6624C23.2702 20.6624 23.3408 20.6795 23.392 20.7209C23.4125 20.7374 23.6656 20.9442 23.6656 21.9044H25.6656C25.6656 20.6226 25.3222 19.7084 24.648 19.1644C24.0046 18.6453 23.2826 18.6624 23.0804 18.6624V20.6624ZM23.6656 21.9044V28.0876H25.6656V21.9044H23.6656ZM23.6656 28.0876C23.6656 28.8607 24.2925 29.4876 25.0656 29.4876V27.4876C25.3971 27.4876 25.6656 27.7561 25.6656 28.0876H23.6656ZM25.0656 29.4876H28.6936V27.4876H25.0656V29.4876ZM28.6936 29.4876C29.4667 29.4876 30.0936 28.8607 30.0936 28.0876H28.0936C28.0936 27.7561 28.3621 27.4876 28.6936 27.4876V29.4876ZM30.0936 28.0876V20.6296H28.0936V28.0876H30.0936ZM30.0936 20.6296C30.0936 18.8614 29.6052 17.3235 28.5862 16.2185C27.5575 15.103 26.0986 14.5492 24.4084 14.5492V16.5492C25.6518 16.5492 26.5355 16.945 27.116 17.5744C27.7062 18.2144 28.0936 19.2166 28.0936 20.6296H30.0936ZM24.4084 14.5492C22.5897 14.5492 21.3318 15.3315 20.5736 16.0457L21.9448 17.5015C22.4258 17.0486 23.2151 16.5492 24.4084 16.5492V14.5492ZM22.2592 16.7736V16.3092H20.2592V16.7736H22.2592ZM22.2592 16.3092C22.2592 15.5361 21.6323 14.9092 20.8592 14.9092V16.9092C20.5277 16.9092 20.2592 16.6407 20.2592 16.3092H22.2592ZM20.8592 14.9092H17.3624V16.9092H20.8592V14.9092ZM17.3624 14.9092C16.5893 14.9092 15.9624 15.5361 15.9624 16.3092H17.9624C17.9624 16.6407 17.6939 16.9092 17.3624 16.9092V14.9092ZM15.9624 16.3092V28.0876H17.9624V16.3092H15.9624ZM15.9624 28.0876C15.9624 28.862 16.5906 29.4872 17.3624 29.4872V27.4872C17.6926 27.4872 17.9624 27.7548 17.9624 28.0876H15.9624ZM17.7624 17.7088H20.4592V15.7088H17.7624V17.7088ZM19.4592 16.7088V17.8948H21.4592V16.7088H19.4592ZM19.4592 17.8948C19.4592 18.5363 19.895 19.0952 20.5166 19.252L21.0058 17.3128C21.2722 17.38 21.4592 17.6198 21.4592 17.8948H19.4592ZM20.5115 19.2507C21.1407 19.413 21.7893 19.1205 22.0917 18.5589L20.3307 17.6107C20.4595 17.3715 20.7386 17.2439 21.0109 17.3141L20.5115 19.2507ZM22.093 18.5565C22.0553 18.6269 22.752 17.3488 24.4084 17.3488V15.3488C21.5984 15.3488 20.3855 17.5083 20.3294 17.6132L22.093 18.5565ZM24.4084 17.3488C25.4254 17.3488 26.1028 17.6631 26.5365 18.141C26.9829 18.6328 27.2936 19.433 27.2936 20.6292H29.2936C29.2936 19.105 28.8963 17.765 28.0174 16.7968C27.1258 15.8145 25.8606 15.3488 24.4084 15.3488V17.3488ZM27.2936 20.6292V27.6868H29.2936V20.6292H27.2936ZM28.2936 26.6868H25.4656V28.6868H28.2936V26.6868ZM26.4656 27.6868V21.9044H24.4656V27.6868H26.4656ZM26.4656 21.9044C26.4656 20.3932 26.0334 19.3185 25.2702 18.6424C24.5301 17.9867 23.6524 17.8624 23.0804 17.8624V19.8624C23.3992 19.8624 23.7141 19.9358 23.9439 20.1394C24.1506 20.3225 24.4656 20.7688 24.4656 21.9044H26.4656ZM23.0804 17.8624C22.0139 17.8624 21.0644 18.2413 20.3966 19.0164C19.7456 19.772 19.4592 20.7908 19.4592 21.9044H21.4592C21.4592 21.1132 21.6626 20.611 21.9118 20.3218C22.1442 20.0521 22.5053 19.8624 23.0804 19.8624V17.8624ZM19.4592 21.9044V27.6876H21.4592V21.9044H19.4592ZM20.4592 26.6876H17.7624V28.6876H20.4592V26.6876ZM18.7624 27.6876V16.7088H16.7624V27.6876H18.7624Z" fill="black" mask="url(#path-5-inside-3_10_32)"/>
<mask id="path-7-inside-4_10_32" fill="white">
<path d="M13.1908 15.1664C14.6 15.1664 15.7468 14.012 15.7468 12.5932C15.7468 11.1744 14.6004 10.02 13.1908 10.02C11.7812 10.02 10.6348 11.1744 10.6348 12.5932C10.6348 14.012 11.7812 15.1664 13.1908 15.1664ZM13.1908 10.82C14.1588 10.82 14.9468 11.6152 14.9468 12.5932C14.9468 13.5712 14.1592 14.3664 13.1908 14.3664C12.2224 14.3664 11.4348 13.5708 11.4348 12.5932C11.4348 11.6156 12.2224 10.82 13.1908 10.82Z"/>
</mask>
<path d="M13.1908 15.1664C14.6 15.1664 15.7468 14.012 15.7468 12.5932C15.7468 11.1744 14.6004 10.02 13.1908 10.02C11.7812 10.02 10.6348 11.1744 10.6348 12.5932C10.6348 14.012 11.7812 15.1664 13.1908 15.1664ZM13.1908 10.82C14.1588 10.82 14.9468 11.6152 14.9468 12.5932C14.9468 13.5712 14.1592 14.3664 13.1908 14.3664C12.2224 14.3664 11.4348 13.5708 11.4348 12.5932C11.4348 11.6156 12.2224 10.82 13.1908 10.82Z" fill="black"/>
<path d="M10.6348 12.5932H9.6348H10.6348ZM13.1908 16.1664C15.1586 16.1664 16.7468 14.558 16.7468 12.5932H14.7468C14.7468 13.466 14.0414 14.1664 13.1908 14.1664V16.1664ZM16.7468 12.5932C16.7468 10.6285 15.1591 9.02 13.1908 9.02V11.02C14.0417 11.02 14.7468 11.7203 14.7468 12.5932H16.7468ZM13.1908 9.02C11.2225 9.02 9.6348 10.6285 9.6348 12.5932H11.6348C11.6348 11.7203 12.3399 11.02 13.1908 11.02V9.02ZM9.6348 12.5932C9.6348 14.5579 11.2225 16.1664 13.1908 16.1664V14.1664C12.3399 14.1664 11.6348 13.4661 11.6348 12.5932H9.6348ZM13.1908 11.82C13.5975 11.82 13.9468 12.1585 13.9468 12.5932H15.9468C15.9468 11.0719 14.7201 9.82 13.1908 9.82V11.82ZM13.9468 12.5932C13.9468 13.0281 13.5978 13.3664 13.1908 13.3664V15.3664C14.7206 15.3664 15.9468 14.1143 15.9468 12.5932H13.9468ZM13.1908 13.3664C12.784 13.3664 12.4348 13.0278 12.4348 12.5932H10.4348C10.4348 14.1138 11.6608 15.3664 13.1908 15.3664V13.3664ZM12.4348 12.5932C12.4348 12.1586 12.784 11.82 13.1908 11.82V9.82C11.6608 9.82 10.4348 11.0726 10.4348 12.5932H12.4348Z" fill="black" mask="url(#path-7-inside-4_10_32)"/>
</svg>
