<svg width="40" height="40" viewBox="0 0 40 40" fill="none" xmlns="http://www.w3.org/2000/svg">
<path d="M20.68 1.60001C10.52 1.60001 2.28 9.84001 2.28 20C2.28 30.16 10.52 38.4 20.68 38.4C30.84 38.4 39.08 30.16 39.08 20C39.08 9.84001 30.84 1.60001 20.68 1.60001ZM20.68 37.6C10.96 37.6 3.08 29.72 3.08 20C3.08 10.28 10.96 2.40001 20.68 2.40001C30.4 2.40001 38.28 10.28 38.28 20C38.28 29.72 30.4 37.6 20.68 37.6Z" fill="black"/>
<path d="M32.92 12.52C32.92 12.48 32.92 12.44 32.92 12.44C32.92 12.4 32.88 12.4 32.88 12.36C32.88 12.36 32.88 12.32 32.84 12.32C32.8 12.28 32.76 12.28 32.72 12.24C32.72 12.24 32.72 12.24 32.68 12.24C32.64 12.24 32.6 12.2 32.56 12.2H8.75999C8.71999 12.2 8.63999 12.2 8.59999 12.24C8.59999 12.24 8.59999 12.24 8.55999 12.24C8.51999 12.24 8.47999 12.28 8.43999 12.32C8.43999 12.32 8.43999 12.36 8.39999 12.36C8.35999 12.4 8.35999 12.4 8.35999 12.44C8.35999 12.48 8.35999 12.52 8.35999 12.52V12.56V27.52C8.35999 27.52 8.35999 27.52 8.35999 27.56C8.35999 27.68 8.39999 27.76 8.47999 27.88C8.55999 27.96 8.67999 28 8.75999 28C8.79999 28 8.87999 28 8.91999 27.96H32.36C32.4 28 32.48 28 32.52 28C32.64 28 32.72 27.96 32.8 27.88C32.92 27.76 32.96 27.56 32.88 27.44V12.64C32.92 12.56 32.92 12.56 32.92 12.52ZM31.52 13L20.64 23.52L9.75999 13H31.52ZM20.36 24.4C20.44 24.48 20.52 24.52 20.64 24.52C20.76 24.52 20.84 24.48 20.92 24.4L32.12 13.56V26.6L26.44 20.92C26.28 20.76 26.04 20.76 25.88 20.92C25.72 21.08 25.72 21.32 25.88 21.48L31.56 27.16H9.71999L15.4 21.48C15.56 21.32 15.56 21.08 15.4 20.92C15.24 20.76 15 20.76 14.84 20.92L9.15999 26.6V13.56L20.36 24.4Z" fill="black"/>
</svg>
