<svg width="40" height="40" viewBox="0 0 40 40" fill="none" xmlns="http://www.w3.org/2000/svg">
<path d="M19.66 38.3472C29.8012 38.3472 38.0512 30.0972 38.0512 19.956C38.0512 9.8148 29.8012 1.5652 19.66 1.5652C9.5188 1.5652 1.2692 9.8156 1.2692 19.9564C1.2692 30.0972 9.5192 38.3472 19.66 38.3472ZM19.66 2.3652C29.3596 2.3652 37.2512 10.2564 37.2512 19.9564C37.2512 29.6564 29.3596 37.5472 19.66 37.5472C9.96039 37.5472 2.0692 29.656 2.0692 19.9564C2.0692 10.2568 9.96039 2.3652 19.66 2.3652Z" fill="black"/>
<path d="M10.4948 25.8844C12.2512 27.0112 14.2824 27.6072 16.3692 27.6072C20.2604 27.6072 22.7652 25.8412 24.1812 24.36C26.192 22.2568 27.3368 19.3044 27.2676 16.4232C27.956 15.898 28.5496 15.2648 29.0348 14.538C29.1336 14.39 29.1228 14.1944 29.008 14.0584C28.8936 13.9224 28.7032 13.8784 28.54 13.9504C28.3532 14.0332 28.1632 14.108 27.97 14.174C28.2384 13.8144 28.4472 13.4108 28.5864 12.9772C28.6372 12.8188 28.5848 12.646 28.4548 12.5424C28.3252 12.4388 28.1452 12.426 28.0016 12.5108C27.3732 12.8832 26.6976 13.1528 25.9912 13.3144C25.2336 12.594 24.2168 12.1852 23.1672 12.1852C21.9124 12.1852 20.7448 12.7492 19.9644 13.7324C19.294 14.5764 18.9888 15.6276 19.094 16.6812C16.4372 16.4148 13.9736 15.094 12.2732 13.0084C12.19 12.9068 12.0624 12.8532 11.9316 12.8624C11.8008 12.8728 11.6832 12.9464 11.6172 13.06C10.7928 14.4744 10.9148 16.198 11.8072 17.4708C11.7464 17.4416 11.6864 17.4108 11.6276 17.3784C11.5052 17.3104 11.356 17.3112 11.2348 17.3808C11.1132 17.4504 11.0372 17.5784 11.0336 17.7184C11.002 19.0464 11.6576 20.2868 12.6916 21.0584C12.5912 21.0672 12.4964 21.114 12.4276 21.1916C12.3344 21.2972 12.3032 21.4444 12.3464 21.5788C12.77 22.8992 13.8208 23.89 15.1092 24.2612C13.8096 25.0152 12.2844 25.3316 10.758 25.1512C10.5776 25.1312 10.3976 25.238 10.3344 25.4136C10.2712 25.5892 10.3384 25.7836 10.4948 25.8844ZM16.4224 24.3344C16.556 24.23 16.6092 24.0532 16.5552 23.8928C16.5012 23.7324 16.3524 23.6228 16.1832 23.6196C14.9912 23.598 13.9232 22.9372 13.3616 21.922C13.748 21.9292 14.1292 21.8796 14.4996 21.7784C14.6784 21.7292 14.8004 21.564 14.7936 21.3784C14.7872 21.1932 14.6544 21.0368 14.4724 21C13.1424 20.7332 12.1152 19.652 11.882 18.3636C12.2716 18.4988 12.6808 18.5752 13.0924 18.588C13.2884 18.5948 13.4316 18.48 13.4856 18.3104C13.5404 18.1404 13.4756 17.9548 13.3272 17.8556C12.0464 16.9996 11.5496 15.3856 12.0616 13.986C13.9928 16.0952 16.6884 17.3732 19.5508 17.5164C19.674 17.5232 19.7972 17.4696 19.8776 17.3736C19.958 17.2776 19.9884 17.1488 19.96 17.0264C19.7312 16.0416 19.9608 15.022 20.5904 14.2288C21.218 13.4376 22.1572 12.9844 23.1664 12.9844C24.0728 12.9844 24.9484 13.3632 25.5684 14.024C25.6628 14.1244 25.8016 14.1684 25.9376 14.1428C26.4 14.0516 26.8508 13.9196 27.2872 13.7476C27.0384 14.0672 26.7304 14.3412 26.376 14.554C26.2144 14.6512 26.1424 14.848 26.2032 15.0264C26.2644 15.2052 26.4444 15.3164 26.6292 15.294C26.9304 15.258 27.228 15.2048 27.5208 15.1348C27.2452 15.4148 26.946 15.6708 26.6256 15.902C26.5164 15.9808 26.454 16.1096 26.46 16.2444C26.5832 18.9788 25.5148 21.806 23.602 23.8064C22.2936 25.1748 19.9768 26.8064 16.368 26.8064C14.9704 26.8064 13.6 26.518 12.3332 25.964C13.8168 25.8224 15.246 25.2564 16.4224 24.3344Z" fill="black"/>
</svg>
